# This file uses centimeters as units for non-parametric coordinates.

mtllib ToastSlice.mtl
g default
v -7.890093 -0.675101 7.374433
v 7.890093 -0.675101 7.374433
v -7.890093 0.675101 7.374433
v 7.890093 0.675101 7.374433
v -7.890093 0.675101 -7.374433
v 7.890093 0.675101 -7.374433
v -7.890093 -0.675101 -7.374433
v 7.890093 -0.675101 -7.374433
v -7.890093 0.675101 -2.358205
v 7.890093 0.675101 -3.857905
v 7.890093 -0.675101 -3.857905
v -7.890093 -0.675101 -2.358205
v -7.890093 0.675101 2.025549
v 7.890093 0.675101 3.818465
v 7.890093 -0.675101 3.818466
v -7.890093 -0.675101 2.025549
v -9.691183 0.675101 4.519226
v 7.890093 0.675101 5.356976
v 7.890093 -0.675101 5.356976
v -9.691183 -0.675101 4.519226
v -9.691183 -0.675101 -4.833952
v 7.890093 -0.675101 -5.608489
v 7.890093 0.675101 -5.608489
v -9.691183 0.675101 -4.833952
v -9.072361 -0.675101 -5.935989
v 7.890093 -0.675101 -6.710526
v 7.890093 0.675101 -6.710526
v -9.072361 0.675101 -5.935989
v -9.396226 0.675101 -4.056283
v 7.890093 0.675101 -4.830820
v 7.890093 -0.675101 -4.830820
v -9.396226 -0.675101 -4.056283
v 7.890093 -0.675101 4.593695
v 7.890093 0.675101 4.593695
v -9.302781 0.675101 3.755944
v -9.302781 -0.675101 3.755944
v -9.296100 0.675101 5.527603
v 7.890093 0.675101 6.365353
v 7.890093 -0.675101 6.365353
v -9.296100 -0.675101 5.527603
vt 0.375000 0.000000
vt 0.625000 0.000000
vt 0.375000 0.250000
vt 0.625000 0.250000
vt 0.375000 0.500000
vt 0.625000 0.500000
vt 0.375000 0.750000
vt 0.625000 0.750000
vt 0.375000 1.000000
vt 0.625000 1.000000
vt 0.875000 0.000000
vt 0.875000 0.250000
vt 0.125000 0.000000
vt 0.125000 0.250000
vt 0.184607 0.250000
vt 0.375000 0.440393
vt 0.625000 0.440393
vt 0.815393 0.250000
vt 0.625000 0.809607
vt 0.815393 0.000000
vt 0.184607 0.000000
vt 0.375000 0.809607
vt 0.314725 0.250000
vt 0.375000 0.310275
vt 0.625000 0.310275
vt 0.685275 0.250000
vt 0.625000 0.939725
vt 0.685275 0.000000
vt 0.314725 0.000000
vt 0.375000 0.939725
vt 0.340803 0.250000
vt 0.375000 0.284197
vt 0.625000 0.284197
vt 0.659197 0.250000
vt 0.625000 0.965803
vt 0.659197 0.000000
vt 0.340803 0.000000
vt 0.375000 0.965803
vt 0.154934 0.000000
vt 0.375000 0.779934
vt 0.625000 0.779934
vt 0.845066 0.000000
vt 0.625000 0.470066
vt 0.845066 0.250000
vt 0.154934 0.250000
vt 0.375000 0.470066
vt 0.136254 0.000000
vt 0.375000 0.761254
vt 0.625000 0.761254
vt 0.863747 0.000000
vt 0.625000 0.488746
vt 0.863746 0.250000
vt 0.136254 0.250000
vt 0.375000 0.488746
vt 0.168115 0.250000
vt 0.375000 0.456885
vt 0.625000 0.456885
vt 0.831885 0.250000
vt 0.625000 0.793115
vt 0.831885 0.000000
vt 0.168115 0.000000
vt 0.375000 0.793115
vt 0.625000 0.952865
vt 0.672135 0.000000
vt 0.625000 0.297135
vt 0.672135 0.250000
vt 0.327865 0.250000
vt 0.375000 0.297135
vt 0.327865 0.000000
vt 0.375000 0.952865
vt 0.357896 0.250000
vt 0.375000 0.267104
vt 0.625000 0.267104
vt 0.642104 0.250000
vt 0.625000 0.982896
vt 0.642104 0.000000
vt 0.357896 0.000000
vt 0.375000 0.982896
vn 0.000000 0.000000 1.000000
vn 0.000000 0.000000 1.000000
vn 0.000000 0.000000 1.000000
vn 0.000000 0.000000 1.000000
vn 0.000000 1.000000 -0.000000
vn 0.000000 1.000000 -0.000000
vn 0.000000 1.000000 0.000000
vn 0.000000 1.000000 -0.000000
vn 0.000000 0.000000 -1.000000
vn 0.000000 0.000000 -1.000000
vn 0.000000 0.000000 -1.000000
vn 0.000000 0.000000 -1.000000
vn 0.000000 -1.000000 -0.000000
vn 0.000000 -1.000000 0.000000
vn 0.000000 -1.000000 -0.000000
vn 0.000000 -1.000000 -0.000000
vn 1.000000 0.000000 0.000000
vn 1.000000 0.000000 0.000000
vn 1.000000 0.000000 0.000000
vn 1.000000 0.000000 0.000000
vn -0.985480 0.000000 -0.169794
vn -0.985480 0.000000 -0.169794
vn -0.808651 0.000000 0.588289
vn -0.808651 0.000000 0.588289
vn 0.000000 1.000000 0.000000
vn 0.000000 1.000000 0.000000
vn 0.000000 1.000000 0.000000
vn 0.000000 1.000000 0.000000
vn 1.000000 0.000000 0.000000
vn 1.000000 0.000000 0.000000
vn 1.000000 0.000000 0.000000
vn 1.000000 0.000000 0.000000
vn 0.000000 -1.000000 0.000000
vn 0.000000 -1.000000 0.000000
vn 0.000000 -1.000000 0.000000
vn 0.000000 -1.000000 0.000000
vn -0.970678 -0.000000 0.240383
vn -0.970678 -0.000000 0.240383
vn -0.974331 -0.000000 -0.225121
vn -0.974331 -0.000000 -0.225121
vn 0.000000 1.000000 -0.000000
vn 0.000000 1.000000 -0.000000
vn 0.000000 1.000000 -0.000000
vn 0.000000 1.000000 -0.000000
vn 1.000000 0.000000 0.000000
vn 1.000000 0.000000 0.000000
vn 1.000000 0.000000 0.000000
vn 1.000000 0.000000 0.000000
vn 0.000000 -1.000000 -0.000000
vn 0.000000 -1.000000 -0.000000
vn 0.000000 -1.000000 -0.000000
vn 0.000000 -1.000000 -0.000000
vn -0.810663 0.000000 -0.585512
vn -0.810663 0.000000 -0.585512
vn -0.999993 0.000000 0.003771
vn -0.999993 0.000000 0.003771
vn 0.000000 1.000000 0.000000
vn 0.000000 1.000000 0.000000
vn 1.000000 0.000000 0.000000
vn 1.000000 0.000000 0.000000
vn 0.000000 -1.000000 0.000000
vn 0.000000 -1.000000 0.000000
vn -0.845783 0.000000 0.533527
vn -0.845783 0.000000 0.533527
vn 0.000000 -1.000000 0.000000
vn 0.000000 -1.000000 -0.000000
vn 1.000000 0.000000 0.000000
vn 1.000000 0.000000 0.000000
vn 0.000000 1.000000 -0.000000
vn 0.000000 1.000000 0.000000
vn -0.815785 0.000000 -0.578356
vn -0.815785 0.000000 -0.578356
vn 0.000000 -1.000000 -0.000000
vn 0.000000 -1.000000 -0.000000
vn 1.000000 0.000000 0.000000
vn 1.000000 0.000000 0.000000
vn 0.000000 1.000000 -0.000000
vn 0.000000 1.000000 -0.000000
vn -0.772545 0.000000 -0.634961
vn -0.772545 0.000000 -0.634961
vn 0.000000 1.000000 0.000000
vn 0.000000 1.000000 0.000000
vn 1.000000 0.000000 0.000000
vn 1.000000 0.000000 0.000000
vn 0.000000 -1.000000 0.000000
vn 0.000000 -1.000000 0.000000
vn -0.795660 0.000000 0.605743
vn -0.795660 0.000000 0.605743
s off
g pCube1
usemtl initialShadingGroup
f 1/1/1 2/2/2 4/4/3 3/3/4
s 1
f 29/56/5 30/57/6 23/43/7 24/46/8
s off
f 5/5/9 6/6/10 8/8/11 7/7/12
s 2
f 21/40/13 22/41/14 31/59/15 32/62/16
s 3
f 30/58/17 31/60/18 22/42/19 23/44/20
s 4
f 24/45/21 21/39/22 32/61/23 29/55/24
s 1
f 13/24/25 14/25/26 10/17/27 9/16/28
s 3
f 14/26/29 15/28/30 11/20/31 10/18/32
s 2
f 12/22/33 11/19/34 15/27/35 16/30/36
s 4
f 9/15/37 12/21/38 16/29/39 13/23/40
s 1
f 17/32/41 18/33/42 34/65/43 35/68/44
s 3
f 18/34/45 19/36/46 33/64/47 34/66/48
s 2
f 36/70/49 33/63/50 19/35/51 20/38/52
s 4
f 35/67/53 36/69/54 20/37/55 17/31/56
s 1
f 37/72/57 38/73/58 18/33/42 17/32/41
s 3
f 38/74/59 39/76/60 19/36/46 18/34/45
s 2
f 20/38/52 19/35/51 39/75/61 40/78/62
s 4
f 17/31/56 20/37/55 40/77/63 37/71/64
s 2
f 25/48/65 26/49/66 22/41/14 21/40/13
s 3
f 23/44/20 22/42/19 26/50/67 27/52/68
s 1
f 24/46/8 23/43/7 27/51/69 28/54/70
s 4
f 28/53/71 25/47/72 21/39/22 24/45/21
s 2
f 7/7/73 8/8/74 26/49/66 25/48/65
s 3
f 27/52/68 26/50/67 8/11/75 6/12/76
s 1
f 28/54/70 27/51/69 6/6/77 5/5/78
s 4
f 7/13/79 25/47/72 28/53/71 5/14/80
s 1
f 9/16/28 10/17/27 30/57/6 29/56/5
s 3
f 10/18/32 11/20/31 31/60/18 30/58/17
s 2
f 32/62/16 31/59/15 11/19/34 12/22/33
s 4
f 29/55/24 32/61/23 12/21/38 9/15/37
s 3
f 34/66/48 33/64/47 15/28/30 14/26/29
s 1
f 35/68/44 34/65/43 14/25/26 13/24/25
s 4
f 13/23/40 16/29/39 36/69/54 35/67/53
s 2
f 16/30/36 15/27/35 33/63/50 36/70/49
s 1
f 3/3/81 4/4/82 38/73/58 37/72/57
s 3
f 2/2/83 39/76/60 38/74/59 4/4/84
s 2
f 40/78/62 39/75/61 2/10/85 1/9/86
s 4
f 37/71/64 40/77/63 1/1/87 3/3/88
